<?xml version="1.0" encoding="UTF-8" standalone="no"?>
<!DOCTYPE svg PUBLIC "-//W3C//DTD SVG 1.1//EN"
 "http://www.w3.org/Graphics/SVG/1.1/DTD/svg11.dtd">
<!-- Generated by graphviz version 12.2.1 (0)
 -->
<!-- Pages: 1 -->
<svg width="213pt" height="272pt"
 viewBox="0.00 0.00 212.97 271.56" xmlns="http://www.w3.org/2000/svg" xmlns:xlink="http://www.w3.org/1999/xlink">
<g id="graph0" class="graph" transform="scale(1 1) rotate(0) translate(4 267.56)">
<polygon fill="white" stroke="none" points="-4,4 -4,-267.56 208.97,-267.56 208.97,4 -4,4"/>
<!-- (10 + 20) / 2 -->
<g id="node1" class="node">
<title>(10 + 20) / 2</title>
<ellipse fill="none" stroke="black" cx="117.82" cy="-244.12" rx="87.15" ry="19.45"/>
<text text-anchor="middle" x="117.82" y="-240.57" font-family="monospace" font-size="14.00">(10 + 20) / 2</text>
</g>
<!-- (10 + 20) -->
<g id="node2" class="node">
<title>(10 + 20)</title>
<ellipse fill="none" stroke="black" cx="63.82" cy="-169.23" rx="63.82" ry="19.45"/>
<text text-anchor="middle" x="63.82" y="-165.68" font-family="monospace" font-size="14.00">(10 + 20)</text>
</g>
<!-- (10 + 20) / 2&#45;&gt;(10 + 20) -->
<g id="edge1" class="edge">
<title>(10 + 20) / 2&#45;&gt;(10 + 20)</title>
<path fill="none" stroke="black" d="M104.19,-224.72C98.11,-216.52 90.83,-206.69 84.13,-197.65"/>
<polygon fill="black" stroke="black" points="87.1,-195.78 78.34,-189.83 81.48,-199.95 87.1,-195.78"/>
</g>
<!-- 2 -->
<g id="node3" class="node">
<title>2</title>
<ellipse fill="none" stroke="black" cx="172.82" cy="-169.23" rx="27" ry="19.45"/>
<text text-anchor="middle" x="172.82" y="-165.68" font-family="monospace" font-size="14.00">2</text>
</g>
<!-- (10 + 20) / 2&#45;&gt;2 -->
<g id="edge2" class="edge">
<title>(10 + 20) / 2&#45;&gt;2</title>
<path fill="none" stroke="black" d="M131.7,-224.72C138.28,-215.99 146.26,-205.42 153.44,-195.91"/>
<polygon fill="black" stroke="black" points="156.12,-198.17 159.35,-188.08 150.53,-193.95 156.12,-198.17"/>
</g>
<!-- 10 + 20 -->
<g id="node4" class="node">
<title>10 + 20</title>
<ellipse fill="none" stroke="black" cx="63.82" cy="-94.34" rx="52.15" ry="19.45"/>
<text text-anchor="middle" x="63.82" y="-90.79" font-family="monospace" font-size="14.00">10 + 20</text>
</g>
<!-- (10 + 20)&#45;&gt;10 + 20 -->
<g id="edge3" class="edge">
<title>(10 + 20)&#45;&gt;10 + 20</title>
<path fill="none" stroke="black" d="M63.82,-149.46C63.82,-142.14 63.82,-133.58 63.82,-125.45"/>
<polygon fill="black" stroke="black" points="67.32,-125.56 63.82,-115.56 60.32,-125.56 67.32,-125.56"/>
</g>
<!-- 10 -->
<g id="node5" class="node">
<title>10</title>
<ellipse fill="none" stroke="black" cx="27.82" cy="-19.45" rx="27" ry="19.45"/>
<text text-anchor="middle" x="27.82" y="-15.9" font-family="monospace" font-size="14.00">10</text>
</g>
<!-- 10 + 20&#45;&gt;10 -->
<g id="edge4" class="edge">
<title>10 + 20&#45;&gt;10</title>
<path fill="none" stroke="black" d="M54.73,-74.94C50.79,-66.97 46.09,-57.45 41.73,-48.61"/>
<polygon fill="black" stroke="black" points="44.89,-47.1 37.32,-39.69 38.61,-50.2 44.89,-47.1"/>
</g>
<!-- 20 -->
<g id="node6" class="node">
<title>20</title>
<ellipse fill="none" stroke="black" cx="99.82" cy="-19.45" rx="27" ry="19.45"/>
<text text-anchor="middle" x="99.82" y="-15.9" font-family="monospace" font-size="14.00">20</text>
</g>
<!-- 10 + 20&#45;&gt;20 -->
<g id="edge5" class="edge">
<title>10 + 20&#45;&gt;20</title>
<path fill="none" stroke="black" d="M72.9,-74.94C76.84,-66.97 81.54,-57.45 85.9,-48.61"/>
<polygon fill="black" stroke="black" points="89.02,-50.2 90.31,-39.69 82.75,-47.1 89.02,-50.2"/>
</g>
</g>
</svg>
