<?xml version="1.0" encoding="UTF-8" standalone="no"?>
<!DOCTYPE svg PUBLIC "-//W3C//DTD SVG 1.1//EN"
 "http://www.w3.org/Graphics/SVG/1.1/DTD/svg11.dtd">
<!-- Generated by graphviz version 13.0.1 (0)
 -->
<!-- Pages: 1 -->
<svg width="218pt" height="152pt"
 viewBox="0.00 0.00 218.00 152.00" xmlns="http://www.w3.org/2000/svg" xmlns:xlink="http://www.w3.org/1999/xlink">
<g id="graph0" class="graph" transform="scale(1 1) rotate(0) translate(4 148)">
<polygon fill="white" stroke="none" points="-4,4 -4,-148 214.27,-148 214.27,4 -4,4"/>
<!-- MSVC -->
<g id="node1" class="node">
<title>MSVC</title>
<ellipse fill="none" stroke="black" cx="34.5" cy="-126" rx="34.5" ry="18"/>
<text xml:space="preserve" text-anchor="middle" x="34.5" y="-119.83" font-family="Times,serif" font-size="14.00">MSVC</text>
</g>
<!-- MSVC STL -->
<g id="node2" class="node">
<title>MSVC STL</title>
<ellipse fill="none" stroke="black" cx="157.64" cy="-126" rx="52.63" ry="18"/>
<text xml:space="preserve" text-anchor="middle" x="157.64" y="-119.83" font-family="Times,serif" font-size="14.00">MSVC STL</text>
</g>
<!-- MSVC&#45;&#45;MSVC STL -->
<g id="edge1" class="edge">
<title>MSVC&#45;&#45;MSVC STL</title>
<path fill="none" stroke="red" d="M69.25,-126C80.31,-126 92.86,-126 104.94,-126"/>
</g>
<!-- Clang -->
<g id="node3" class="node">
<title>Clang</title>
<ellipse fill="none" stroke="black" cx="34.5" cy="-72" rx="30.69" ry="18"/>
<text xml:space="preserve" text-anchor="middle" x="34.5" y="-65.83" font-family="Times,serif" font-size="14.00">Clang</text>
</g>
<!-- Clang&#45;&#45;MSVC STL -->
<g id="edge2" class="edge">
<title>Clang&#45;&#45;MSVC STL</title>
<path fill="none" stroke="red" d="M59.73,-82.8C78.37,-91.11 104.3,-102.67 124.65,-111.74"/>
</g>
<!-- libc++ -->
<g id="node4" class="node">
<title>libc++</title>
<ellipse fill="none" stroke="black" cx="157.64" cy="-72" rx="33.55" ry="18"/>
<text xml:space="preserve" text-anchor="middle" x="157.64" y="-65.83" font-family="Times,serif" font-size="14.00">libc++</text>
</g>
<!-- Clang&#45;&#45;libc++ -->
<g id="edge3" class="edge">
<title>Clang&#45;&#45;libc++</title>
<path fill="none" stroke="blue" d="M63.91,-66.18C82.37,-65 106.44,-64.94 125.44,-66.01"/>
</g>
<!-- Clang&#45;&#45;libc++ -->
<g id="edge4" class="edge">
<title>Clang&#45;&#45;libc++</title>
<path fill="none" stroke="red" d="M63.91,-77.82C82.37,-79 106.44,-79.06 125.44,-77.99"/>
</g>
<!-- libstdc++ -->
<g id="node5" class="node">
<title>libstdc++</title>
<ellipse fill="none" stroke="black" cx="157.64" cy="-18" rx="43.57" ry="18"/>
<text xml:space="preserve" text-anchor="middle" x="157.64" y="-11.82" font-family="Times,serif" font-size="14.00">libstdc++</text>
</g>
<!-- Clang&#45;&#45;libstdc++ -->
<g id="edge5" class="edge">
<title>Clang&#45;&#45;libstdc++</title>
<path fill="none" stroke="blue" d="M59.73,-61.2C79.2,-52.52 106.62,-40.3 127.33,-31.07"/>
</g>
<!-- GCC -->
<g id="node6" class="node">
<title>GCC</title>
<ellipse fill="none" stroke="black" cx="34.5" cy="-18" rx="27.83" ry="18"/>
<text xml:space="preserve" text-anchor="middle" x="34.5" y="-11.82" font-family="Times,serif" font-size="14.00">GCC</text>
</g>
<!-- GCC&#45;&#45;libc++ -->
<g id="edge7" class="edge">
<title>GCC&#45;&#45;libc++</title>
<path fill="none" stroke="blue" d="M58,-28.03C78.8,-37.3 109.68,-51.07 131.33,-60.72"/>
</g>
<!-- GCC&#45;&#45;libstdc++ -->
<g id="edge6" class="edge">
<title>GCC&#45;&#45;libstdc++</title>
<path fill="none" stroke="blue" d="M62.69,-18C77.76,-18 96.83,-18 113.85,-18"/>
</g>
</g>
</svg>
